<svg width="46" height="38" viewBox="0 0 46 38" fill="none" xmlns="http://www.w3.org/2000/svg">
<path d="M45 33C45 34.0609 44.5786 35.0783 43.8284 35.8284C43.0783 36.5786 42.0609 37 41 37H5C3.93913 37 2.92172 36.5786 2.17157 35.8284C1.42143 35.0783 1 34.0609 1 33V11C1 9.93913 1.42143 8.92172 2.17157 8.17157C2.92172 7.42143 3.93913 7 5 7H13L17 1H29L33 7H41C42.0609 7 43.0783 7.42143 43.8284 8.17157C44.5786 8.92172 45 9.93913 45 11V33Z" stroke="white" stroke-width="2" stroke-linecap="round" stroke-linejoin="round"/>
</svg>
