<svg version="1.1" id="Layer_1" xmlns="http://www.w3.org/2000/svg" xmlns:xlink="http://www.w3.org/1999/xlink" x="0px" y="0px"
	 width="100%" viewBox="0 0 512 512" enable-background="new 0 0 512 512" xml:space="preserve">
<path fill="#000000" opacity="1.000000" stroke="none" 
	d="
M513.000000,164.000000 
	C513.000000,249.020889 513.000000,334.041779 512.624023,419.656006 
	C509.400177,432.652100 503.756866,443.218231 493.920715,451.773499 
	C481.950562,462.184845 468.169708,466.040100 452.710358,466.033295 
	C320.746979,465.975159 188.783600,466.009430 56.820259,465.951813 
	C53.084618,465.950195 49.242870,465.666779 45.631767,464.778381 
	C27.562241,460.332916 13.940646,450.194794 5.987399,433.025726 
	C4.419105,429.640198 2.667221,426.339722 1.000001,423.000000 
	C1.000000,335.645782 1.000000,248.291550 1.362019,160.372375 
	C2.121209,159.295471 2.724200,158.841095 2.885940,158.263214 
	C9.980991,132.912949 33.836681,116.409401 60.071316,116.918594 
	C80.893105,117.322731 101.729004,117.004662 122.558624,116.989799 
	C123.989410,116.988785 125.420105,116.841866 126.492035,116.782631 
	C127.009064,106.487419 126.233086,96.340126 128.254395,86.784538 
	C133.122208,63.772285 153.042831,48.227665 176.297485,48.096256 
	C229.952896,47.793049 283.611328,47.950127 337.268127,48.088070 
	C341.911285,48.100006 346.706482,48.819893 351.166351,50.119438 
	C372.889313,56.449215 388.269958,76.950539 387.046753,99.500320 
	C386.734985,105.247917 387.000000,111.026794 387.000000,117.000000 
	C404.381561,117.000000 421.190887,116.890579 437.997772,117.044395 
	C446.910828,117.125961 455.863770,117.218338 464.720978,118.093124 
	C481.327026,119.733253 494.268829,128.227280 503.193054,141.974915 
	C507.515106,148.633011 509.795349,156.616547 513.000000,164.000000 
M375.965942,328.273132 
	C382.910828,304.043091 383.472900,279.747925 375.942993,255.591049 
	C369.077148,233.564636 357.650299,214.207779 339.693512,199.374252 
	C331.620453,192.705353 323.231903,186.015656 314.004700,181.227432 
	C292.302429,169.965637 269.144348,164.882263 244.443451,167.903305 
	C230.559189,169.601425 217.227417,172.854904 204.606049,178.840790 
	C189.520721,185.995178 175.880722,195.242172 165.317001,208.322495 
	C159.137100,215.974609 153.117966,223.888718 148.118286,232.331512 
	C140.174484,245.745987 135.608139,260.387848 133.807358,276.044220 
	C132.400208,288.278168 132.323532,300.428436 134.329803,312.425781 
	C136.965836,328.189148 142.807159,342.912476 151.164368,356.647919 
	C160.570312,372.107056 172.894211,384.865845 187.766861,394.823761 
	C204.814224,406.237823 223.647949,413.005676 244.367432,415.240479 
	C261.319855,417.069031 277.770508,415.493225 293.655518,410.492279 
	C315.915283,403.484344 334.960388,391.062439 350.483612,373.199707 
	C361.900970,360.061584 370.063171,345.351013 375.965942,328.273132 
z"/>
<path fill="#FFFFFF" opacity="1.000000" stroke="none" 
	d="
M513.000000,163.531342 
	C509.795349,156.616547 507.515106,148.633011 503.193054,141.974915 
	C494.268829,128.227280 481.327026,119.733253 464.720978,118.093124 
	C455.863770,117.218338 446.910828,117.125961 437.997772,117.044395 
	C421.190887,116.890579 404.381561,117.000000 387.000000,117.000000 
	C387.000000,111.026794 386.734985,105.247917 387.046753,99.500320 
	C388.269958,76.950539 372.889313,56.449215 351.166351,50.119438 
	C346.706482,48.819893 341.911285,48.100006 337.268127,48.088070 
	C283.611328,47.950127 229.952896,47.793049 176.297485,48.096256 
	C153.042831,48.227665 133.122208,63.772285 128.254395,86.784538 
	C126.233086,96.340126 127.009064,106.487419 126.492035,116.782631 
	C125.420105,116.841866 123.989410,116.988785 122.558624,116.989799 
	C101.729004,117.004662 80.893105,117.322731 60.071316,116.918594 
	C33.836681,116.409401 9.980991,132.912949 2.885940,158.263214 
	C2.724200,158.841095 2.121209,159.295471 1.362019,159.903717 
	C1.000000,107.027794 1.000000,54.055592 1.000000,1.041695 
	C171.549347,1.041695 342.098724,1.041695 513.000000,1.041695 
	C513.000000,55.020386 513.000000,109.041534 513.000000,163.531342 
z"/>
<path fill="#FFFFFF" opacity="1.000000" stroke="none" 
	d="
M1.000001,423.468658 
	C2.667221,426.339722 4.419105,429.640198 5.987399,433.025726 
	C13.940646,450.194794 27.562241,460.332916 45.631767,464.778381 
	C49.242870,465.666779 53.084618,465.950195 56.820259,465.951813 
	C188.783600,466.009430 320.746979,465.975159 452.710358,466.033295 
	C468.169708,466.040100 481.950562,462.184845 493.920715,451.773499 
	C503.756866,443.218231 509.400177,432.652100 512.624023,420.124695 
	C513.000000,450.980469 513.000000,481.960938 513.000000,512.941040 
	C342.333313,512.940735 171.666656,512.940735 1.000000,512.940735 
	C1.000000,483.233429 1.000000,453.585358 1.000001,423.468658 
z"/>
<path fill="#FFFFFF" opacity="1.000000" stroke="none" 
	d="
M375.747375,328.625580 
	C370.063171,345.351013 361.900970,360.061584 350.483612,373.199707 
	C334.960388,391.062439 315.915283,403.484344 293.655518,410.492279 
	C277.770508,415.493225 261.319855,417.069031 244.367432,415.240479 
	C223.647949,413.005676 204.814224,406.237823 187.766861,394.823761 
	C172.894211,384.865845 160.570312,372.107056 151.164368,356.647919 
	C142.807159,342.912476 136.965836,328.189148 134.329803,312.425781 
	C132.323532,300.428436 132.400208,288.278168 133.807358,276.044220 
	C135.608139,260.387848 140.174484,245.745987 148.118286,232.331512 
	C153.117966,223.888718 159.137100,215.974609 165.317001,208.322495 
	C175.880722,195.242172 189.520721,185.995178 204.606049,178.840790 
	C217.227417,172.854904 230.559189,169.601425 244.443451,167.903305 
	C269.144348,164.882263 292.302429,169.965637 314.004700,181.227432 
	C323.231903,186.015656 331.620453,192.705353 339.693512,199.374252 
	C357.650299,214.207779 369.077148,233.564636 375.942993,255.591049 
	C383.472900,279.747925 382.910828,304.043091 375.747375,328.625580 
M269.914185,209.393143 
	C260.879089,208.792999 251.904846,208.355209 242.847656,209.902893 
	C218.295090,214.098465 199.740570,226.972595 186.602005,247.895660 
	C173.128876,269.351532 170.398270,292.308685 177.865265,316.384003 
	C184.042007,336.299286 196.174973,351.697479 214.059097,362.598389 
	C233.426132,374.403137 254.272675,377.154663 276.069519,372.353577 
	C293.372925,368.542236 307.965240,359.764374 319.492462,346.038544 
	C339.279816,322.477081 344.818420,295.981842 336.106476,266.550079 
	C330.769958,248.521591 319.836243,234.301010 304.755951,223.449921 
	C294.627472,216.161911 283.250092,211.291534 269.914185,209.393143 
z"/>
<path fill="#000000" opacity="1.000000" stroke="none" 
	d="
M270.269348,209.671814 
	C283.250092,211.291534 294.627472,216.161911 304.755951,223.449921 
	C319.836243,234.301010 330.769958,248.521591 336.106476,266.550079 
	C344.818420,295.981842 339.279816,322.477081 319.492462,346.038544 
	C307.965240,359.764374 293.372925,368.542236 276.069519,372.353577 
	C254.272675,377.154663 233.426132,374.403137 214.059097,362.598389 
	C196.174973,351.697479 184.042007,336.299286 177.865265,316.384003 
	C170.398270,292.308685 173.128876,269.351532 186.602005,247.895660 
	C199.740570,226.972595 218.295090,214.098465 242.847656,209.902893 
	C251.904846,208.355209 260.879089,208.792999 270.269348,209.671814 
z"/>
</svg>